<svg version="1.1" xmlns="http://www.w3.org/2000/svg" viewBox="0 0 157.30196080589928 90.1885104404455" width="157.30196080589928" height="90.1885104404455">
  <!-- svg-source:excalidraw -->
  
  <defs>
    <style class="style-fonts">
      @font-face {
        font-family: "Virgil";
        src: url("https://excalidraw.com/Virgil.woff2");
      }
      @font-face {
        font-family: "Cascadia";
        src: url("https://excalidraw.com/Cascadia.woff2");
      }
      @font-face {
        font-family: "Assistant";
        src: url("https://excalidraw.com/Assistant-Regular.woff2");
      }
    </style>
    
  </defs>
  <rect x="0" y="0" width="157.30196080589928" height="90.1885104404455" fill="none"></rect><g stroke-linecap="round"><g transform="translate(11.032720135162322 20.92567559332474) rotate(0 0 22.426581012357474)"><path d="M0 0 C-0.74 17.23, -0.08 35.7, 0 44.85 M0 0 C0.43 9.22, 0.41 18.98, 0 44.85" stroke="#1e1e1e" stroke-width="2" fill="none"></path></g></g><mask></mask><g stroke-linecap="round"><g transform="translate(146.3931124285242 14.518089748016791) rotate(0 -0.8009367729962378 28.834166857665537)"><path d="M0 0 C-0.95 15.55, -2.89 29.07, -1.6 57.67 M0 0 C0.6 16.14, 0.44 34.86, -1.6 57.67" stroke="#1e1e1e" stroke-width="2" fill="none"></path></g></g><mask></mask><g transform="translate(11.076276304957219 21.377762161055216) rotate(0 66.5753063477419 -3.7669612021161356)" stroke="none"><path fill="white" d="M -2.14,-1.42 Q -2.14,-1.42 -1.82,-1.98 -1.50,-2.54 -0.68,-3.75 0.13,-4.96 1.04,-5.87 1.94,-6.79 3.41,-7.99 4.87,-9.19 5.72,-9.89 6.56,-10.58 7.65,-11.26 8.74,-11.94 9.72,-12.42 10.69,-12.90 12.39,-13.33 14.10,-13.77 15.45,-13.85 16.80,-13.93 18.84,-14.19 20.88,-14.45 22.64,-14.39 24.40,-14.33 26.00,-14.27 27.61,-14.21 29.66,-13.94 31.71,-13.66 33.16,-13.51 34.61,-13.36 36.09,-13.11 37.57,-12.85 39.21,-12.53 40.85,-12.20 42.13,-12.02 43.40,-11.83 45.36,-11.36 47.32,-10.89 48.95,-10.45 50.58,-10.01 51.94,-9.68 53.30,-9.36 55.10,-8.74 56.91,-8.12 58.21,-7.80 59.52,-7.47 60.68,-7.18 61.85,-6.89 63.33,-6.38 64.80,-5.87 65.86,-5.58 66.93,-5.29 68.33,-4.77 69.74,-4.25 70.94,-3.78 72.14,-3.31 73.46,-2.87 74.79,-2.42 76.12,-2.06 77.45,-1.71 78.74,-1.38 80.03,-1.06 81.60,-0.67 83.17,-0.28 84.58,-0.00 85.98,0.27 87.48,0.54 88.98,0.80 90.06,0.95 91.15,1.11 92.85,1.13 94.56,1.14 96.82,1.14 99.09,1.13 100.44,1.14 101.78,1.16 102.93,1.03 104.07,0.90 105.16,0.82 106.26,0.73 107.73,0.50 109.21,0.26 110.74,0.00 112.28,-0.25 113.89,-0.60 115.50,-0.95 117.05,-1.32 118.61,-1.69 119.96,-2.02 121.30,-2.34 122.38,-2.78 123.45,-3.22 124.51,-3.58 125.57,-3.94 127.04,-4.82 128.52,-5.70 129.73,-6.58 130.94,-7.46 131.46,-7.74 131.97,-8.01 132.54,-8.11 133.12,-8.21 133.69,-8.12 134.27,-8.03 134.79,-7.76 135.30,-7.49 135.71,-7.07 136.11,-6.65 136.36,-6.12 136.61,-5.60 136.68,-5.02 136.74,-4.44 136.62,-3.87 136.50,-3.30 136.21,-2.80 135.91,-2.30 135.47,-1.92 135.03,-1.54 134.49,-1.32 133.95,-1.10 133.36,-1.06 132.78,-1.02 132.22,-1.18 131.66,-1.33 131.17,-1.65 130.69,-1.97 130.33,-2.44 129.98,-2.90 129.79,-3.45 129.60,-4.00 129.59,-4.58 129.59,-5.16 129.77,-5.72 129.95,-6.27 130.30,-6.74 130.65,-7.20 131.13,-7.53 131.61,-7.87 132.17,-8.03 132.73,-8.19 133.31,-8.16 133.89,-8.13 134.44,-7.92 134.98,-7.71 135.43,-7.33 135.87,-6.96 136.18,-6.46 136.48,-5.97 136.61,-5.40 136.74,-4.83 136.68,-4.25 136.62,-3.67 136.38,-3.14 136.14,-2.61 135.74,-2.18 135.35,-1.76 135.35,-1.76 135.35,-1.76 133.23,-0.52 131.10,0.70 129.85,1.40 128.60,2.10 127.56,2.45 126.52,2.81 125.18,3.31 123.85,3.81 122.79,4.02 121.74,4.22 120.40,4.43 119.06,4.65 117.97,4.87 116.88,5.09 115.35,5.37 113.82,5.66 112.70,5.67 111.58,5.68 109.87,5.90 108.15,6.12 106.39,6.18 104.62,6.24 103.20,6.38 101.78,6.51 100.42,6.52 99.06,6.53 96.72,6.48 94.37,6.43 93.30,6.35 92.23,6.28 90.21,5.89 88.20,5.51 86.62,5.26 85.04,5.02 83.57,4.72 82.10,4.43 80.44,4.09 78.78,3.76 77.47,3.41 76.16,3.05 74.70,2.66 73.23,2.27 71.73,1.78 70.22,1.29 69.13,0.80 68.04,0.32 66.75,-0.16 65.46,-0.64 64.35,-1.03 63.24,-1.43 61.89,-1.91 60.54,-2.39 59.43,-2.76 58.32,-3.13 56.97,-3.54 55.62,-3.95 53.88,-4.42 52.14,-4.90 50.77,-5.28 49.41,-5.66 47.96,-6.05 46.52,-6.44 44.56,-6.67 42.61,-6.91 41.32,-7.14 40.04,-7.37 38.38,-7.60 36.72,-7.83 35.41,-8.05 34.10,-8.27 32.74,-8.40 31.38,-8.53 29.52,-8.51 27.66,-8.49 26.10,-8.40 24.53,-8.31 22.18,-8.10 19.83,-7.90 18.52,-7.64 17.21,-7.39 15.83,-7.22 14.46,-7.05 13.03,-6.64 11.59,-6.23 10.60,-5.65 9.61,-5.08 8.40,-4.21 7.20,-3.33 5.66,-2.36 4.12,-1.39 3.52,-0.48 2.92,0.41 2.53,0.92 2.14,1.42 1.93,1.66 1.73,1.89 1.48,2.07 1.23,2.25 0.94,2.37 0.65,2.48 0.34,2.53 0.04,2.57 -0.26,2.54 -0.57,2.50 -0.86,2.40 -1.15,2.29 -1.41,2.12 -1.67,1.95 -1.88,1.72 -2.09,1.49 -2.24,1.22 -2.39,0.95 -2.47,0.65 -2.55,0.35 -2.55,0.04 -2.56,-0.26 -2.49,-0.57 -2.42,-0.87 -2.28,-1.15 -2.14,-1.42 -2.14,-1.42 L -2.14,-1.42 Z"></path></g><g transform="translate(11.691287146908394 66.65819566947584) rotate(0 67.11344450022051 4.458853531391128)" stroke="none"><path fill="white" d="M -0.54,-2.61 Q -0.54,-2.61 0.51,-2.86 1.56,-3.10 3.23,-3.43 4.90,-3.77 6.09,-4.01 7.28,-4.25 8.77,-4.79 10.26,-5.32 11.82,-5.76 13.38,-6.20 14.56,-6.49 15.74,-6.78 17.16,-7.05 18.57,-7.33 20.13,-7.56 21.69,-7.79 22.86,-7.90 24.02,-8.01 25.41,-8.03 26.79,-8.05 27.97,-8.06 29.15,-8.08 30.95,-8.05 32.75,-8.02 34.60,-7.99 36.45,-7.97 38.05,-7.87 39.66,-7.78 41.65,-7.60 43.64,-7.43 44.75,-7.27 45.86,-7.11 46.92,-6.95 47.97,-6.79 50.03,-6.53 52.09,-6.26 53.69,-6.02 55.29,-5.78 56.35,-5.63 57.40,-5.48 61.04,-4.55 64.67,-3.61 66.74,-2.95 68.81,-2.29 70.69,-1.96 72.56,-1.62 74.18,-1.27 75.80,-0.92 77.39,-0.53 78.98,-0.15 80.39,0.38 81.81,0.92 82.95,1.43 84.09,1.94 85.45,2.30 86.81,2.65 88.08,3.06 89.34,3.47 90.66,3.95 91.97,4.43 93.47,5.07 94.98,5.71 96.34,6.28 97.71,6.84 98.96,7.21 100.21,7.59 101.65,7.87 103.09,8.16 104.65,8.53 106.22,8.90 107.70,9.25 109.19,9.60 110.90,9.81 112.61,10.03 113.85,10.06 115.09,10.09 116.16,10.08 117.24,10.08 118.73,9.95 120.22,9.81 121.47,9.55 122.73,9.29 123.91,8.97 125.10,8.65 126.33,8.21 127.56,7.78 128.68,7.39 129.81,7.01 130.20,6.80 130.59,6.59 130.69,6.01 130.79,5.43 131.07,4.91 131.34,4.40 131.77,3.99 132.20,3.59 132.74,3.35 133.27,3.10 133.85,3.04 134.44,2.98 135.01,3.11 135.58,3.24 136.08,3.55 136.59,3.85 136.96,4.30 137.34,4.75 137.56,5.30 137.77,5.85 137.80,6.43 137.83,7.02 137.67,7.58 137.51,8.15 137.18,8.63 136.84,9.12 136.37,9.47 135.90,9.82 135.35,10.01 134.79,10.19 134.20,10.19 133.62,10.18 133.06,9.99 132.50,9.80 132.04,9.45 131.57,9.09 131.25,8.60 130.92,8.11 130.77,7.55 130.61,6.98 130.65,6.39 130.68,5.81 130.90,5.26 131.12,4.72 131.51,4.27 131.89,3.83 132.39,3.53 132.90,3.23 133.47,3.10 134.05,2.98 134.63,3.05 135.21,3.12 135.74,3.36 136.27,3.61 136.70,4.02 137.12,4.43 137.40,4.95 137.67,5.47 137.76,6.05 137.85,6.63 137.85,6.63 137.85,6.63 136.51,9.39 135.17,12.15 134.00,12.79 132.83,13.44 131.37,13.94 129.90,14.45 128.81,14.85 127.72,15.25 126.53,15.50 125.34,15.74 124.13,15.99 122.91,16.24 121.55,16.51 120.19,16.77 118.70,16.87 117.21,16.97 116.09,16.95 114.96,16.93 113.58,16.88 112.19,16.83 111.00,16.77 109.82,16.72 108.07,16.42 106.32,16.11 105.04,15.77 103.76,15.43 102.62,15.14 101.49,14.85 100.18,14.50 98.87,14.15 97.36,13.64 95.85,13.14 94.64,12.59 93.44,12.03 92.22,11.45 91.01,10.86 89.75,10.31 88.50,9.77 87.38,9.29 86.27,8.81 84.81,8.29 83.34,7.76 81.63,7.01 79.92,6.27 78.63,5.85 77.34,5.43 75.55,4.90 73.75,4.36 72.51,3.90 71.28,3.44 69.51,2.94 67.74,2.45 65.67,2.17 63.59,1.89 59.38,1.34 55.16,0.80 54.04,0.55 52.92,0.31 51.11,0.05 49.31,-0.20 48.19,-0.30 47.07,-0.40 45.03,-0.63 43.00,-0.87 40.98,-0.98 38.97,-1.08 37.71,-1.17 36.45,-1.25 34.60,-1.22 32.76,-1.20 30.96,-1.17 29.16,-1.14 28.01,-1.14 26.85,-1.15 25.65,-1.14 24.44,-1.13 23.06,-1.04 21.68,-0.95 20.32,-0.77 18.95,-0.59 17.71,-0.41 16.47,-0.23 15.33,-0.03 14.18,0.15 12.60,0.51 11.03,0.87 9.74,1.20 8.45,1.54 7.04,1.69 5.63,1.85 4.15,2.03 2.67,2.21 1.61,2.41 0.54,2.61 0.22,2.64 -0.09,2.67 -0.41,2.62 -0.73,2.57 -1.03,2.44 -1.32,2.32 -1.58,2.12 -1.84,1.93 -2.05,1.68 -2.25,1.43 -2.39,1.14 -2.53,0.85 -2.59,0.54 -2.66,0.22 -2.65,-0.09 -2.64,-0.41 -2.55,-0.72 -2.46,-1.03 -2.30,-1.31 -2.14,-1.59 -1.92,-1.83 -1.69,-2.06 -1.42,-2.23 -1.15,-2.41 -0.85,-2.51 -0.54,-2.61 -0.54,-2.61 L -0.54,-2.61 Z"></path></g><g transform="translate(10 21.300886538965642) rotate(0 1.4606573480224938 20.7567346868434)" stroke="none"><path fill="white" d="M 2.47,0 Q 2.47,0 2.52,0.61 2.57,1.23 2.68,2.34 2.79,3.44 3.24,4.50 3.69,5.55 4.18,6.61 4.67,7.67 5.13,9.17 5.59,10.67 5.72,11.84 5.85,13.02 6.04,14.12 6.23,15.23 6.33,16.42 6.44,17.61 6.47,18.89 6.50,20.17 6.52,21.34 6.55,22.51 6.58,23.75 6.60,24.99 6.62,26.24 6.64,27.49 6.65,28.59 6.67,29.70 6.46,31.59 6.25,33.49 6.18,34.63 6.11,35.76 5.70,37.12 5.30,38.47 5.56,39.99 5.82,41.51 5.72,42.12 5.62,42.73 5.33,43.28 5.04,43.83 4.59,44.25 4.14,44.68 3.58,44.94 3.02,45.20 2.40,45.27 1.79,45.33 1.18,45.20 0.58,45.07 0.05,44.75 -0.48,44.43 -0.88,43.96 -1.28,43.48 -1.51,42.91 -1.74,42.33 -1.77,41.71 -1.80,41.09 -1.64,40.50 -1.47,39.90 -1.12,39.39 -0.78,38.87 -0.28,38.50 0.20,38.12 0.79,37.93 1.37,37.73 1.99,37.73 2.61,37.73 3.20,37.93 3.79,38.12 4.28,38.50 4.77,38.88 5.12,39.39 5.47,39.90 5.64,40.50 5.80,41.10 5.77,41.71 5.73,42.33 5.50,42.91 5.28,43.48 4.87,43.96 4.47,44.43 3.94,44.75 3.41,45.07 2.81,45.20 2.20,45.33 1.58,45.27 0.97,45.20 0.41,44.94 -0.15,44.68 -0.60,44.25 -1.05,43.83 -1.34,43.28 -1.63,42.73 -1.73,42.12 -1.83,41.51 -1.83,41.51 -1.83,41.51 -1.79,39.02 -1.76,36.53 -1.61,35.32 -1.47,34.11 -1.15,32.83 -0.83,31.56 -0.82,30.44 -0.82,29.32 -0.80,28.17 -0.79,27.03 -0.77,25.75 -0.75,24.48 -0.73,23.34 -0.70,22.20 -0.67,20.90 -0.65,19.61 -0.61,18.36 -0.58,17.11 -0.58,15.95 -0.58,14.79 -0.76,13.54 -0.93,12.28 -1.02,11.15 -1.10,10.02 -1.56,9.05 -2.02,8.08 -2.16,6.88 -2.30,5.68 -2.55,4.56 -2.79,3.44 -2.68,2.34 -2.57,1.23 -2.52,0.61 -2.47,0 -2.43,-0.29 -2.39,-0.59 -2.29,-0.86 -2.18,-1.14 -2.01,-1.39 -1.84,-1.63 -1.62,-1.83 -1.40,-2.03 -1.13,-2.17 -0.87,-2.31 -0.58,-2.38 -0.29,-2.45 0.00,-2.45 0.29,-2.45 0.58,-2.38 0.87,-2.31 1.14,-2.17 1.40,-2.03 1.62,-1.83 1.84,-1.63 2.01,-1.39 2.18,-1.14 2.29,-0.86 2.39,-0.59 2.43,-0.29 2.47,0.00 2.47,0.00 L 2.47,0 Z"></path></g><g transform="translate(147.30196080589928 15.612002525821026) rotate(0 -0.1537571094133341 28.290660023692794)" stroke="none"><path fill="white" d="M 2.65,0.10 Q 2.65,0.10 2.62,1.21 2.60,2.31 2.64,3.84 2.67,5.36 2.75,6.79 2.84,8.22 2.88,9.41 2.93,10.59 2.95,12.25 2.97,13.90 2.99,15.47 3.01,17.03 3.03,18.58 3.05,20.12 3.09,21.72 3.14,23.32 3.16,24.53 3.18,25.74 3.20,26.84 3.22,27.94 3.24,29.42 3.27,30.90 3.28,32.00 3.29,33.11 3.31,34.56 3.33,36.01 3.35,37.40 3.37,38.78 3.38,40.20 3.39,41.61 3.41,42.88 3.42,44.16 3.44,45.40 3.46,46.64 3.48,47.97 3.50,49.30 3.52,50.45 3.53,51.60 2.81,55.51 2.08,59.43 1.56,59.74 1.04,60.04 0.45,60.17 -0.13,60.30 -0.73,60.23 -1.32,60.16 -1.87,59.90 -2.41,59.64 -2.85,59.23 -3.28,58.81 -3.56,58.27 -3.84,57.74 -3.93,57.14 -4.03,56.55 -3.92,55.96 -3.82,55.36 -3.54,54.83 -3.25,54.30 -2.81,53.89 -2.37,53.48 -1.82,53.23 -1.27,52.98 -0.67,52.92 -0.07,52.86 0.50,52.99 1.09,53.13 1.60,53.44 2.12,53.76 2.51,54.22 2.89,54.68 3.11,55.24 3.33,55.80 3.36,56.40 3.39,57.01 3.22,57.59 3.05,58.16 2.71,58.66 2.37,59.16 1.89,59.52 1.41,59.88 0.83,60.07 0.26,60.25 -0.33,60.25 -0.93,60.25 -1.50,60.05 -2.07,59.85 -2.55,59.48 -3.02,59.12 -3.36,58.62 -3.69,58.11 -3.85,57.53 -4.01,56.95 -3.97,56.35 -3.93,55.75 -3.71,55.19 -3.48,54.63 -3.08,54.18 -2.69,53.72 -2.69,53.72 -2.69,53.72 -3.27,52.66 -3.84,51.60 -3.82,50.45 -3.81,49.30 -3.79,47.97 -3.77,46.64 -3.75,45.40 -3.73,44.16 -3.71,42.88 -3.70,41.61 -3.69,40.20 -3.67,38.78 -3.66,37.40 -3.64,36.01 -3.62,34.56 -3.60,33.11 -3.59,32.00 -3.58,30.90 -3.55,29.42 -3.52,27.94 -3.50,26.84 -3.48,25.74 -3.46,24.53 -3.44,23.32 -3.40,21.72 -3.36,20.12 -3.34,18.58 -3.32,17.03 -3.30,15.47 -3.27,13.90 -3.25,12.25 -3.23,10.59 -3.19,9.40 -3.14,8.22 -3.05,6.75 -2.96,5.28 -2.87,3.69 -2.78,2.10 -2.71,0.99 -2.65,-0.10 -2.59,-0.42 -2.54,-0.73 -2.42,-1.03 -2.29,-1.32 -2.10,-1.58 -1.91,-1.83 -1.66,-2.03 -1.41,-2.24 -1.12,-2.37 -0.84,-2.51 -0.52,-2.57 -0.21,-2.64 0.10,-2.63 0.42,-2.61 0.73,-2.52 1.03,-2.44 1.31,-2.28 1.59,-2.12 1.82,-1.89 2.05,-1.67 2.22,-1.40 2.39,-1.13 2.49,-0.83 2.59,-0.53 2.62,-0.21 2.65,0.10 2.65,0.10 L 2.65,0.10 Z"></path></g><g transform="translate(145.3031594401641 13.766961202116363) rotate(0 0.00004999999998744897 0.00004999999998744897)" stroke="none"></g><g transform="translate(36.60297757743001 25.60719625829347) rotate(0 48.491973876953125 22.5)"><text x="0" y="31.536" font-family="impact" font-size="36px" fill="white" text-anchor="start" style="white-space: pre;" direction="ltr" dominant-baseline="alphabetic">LiaBil</text></g></svg>